<?xml version="1.0" encoding="UTF-8"?>
<svg id="Layer_1" data-name="Layer 1" xmlns="http://www.w3.org/2000/svg" viewBox="0 0 717.88 513.25">
  <defs>
    <style>
      .cls-1 {
        fill: #dcc275;
      }

      .cls-2 {
        fill: #1f8027;
      }

      .cls-3 {
        fill: #49270f;
      }

      .cls-4 {
        fill: #f37004;
      }

      .cls-5 {
        fill: #97ab99;
      }

      .cls-6 {
        fill: #d3f8d7;
      }

      .cls-7 {
        fill: #f0bbaf;
      }
    </style>
  </defs>
  <g>
    <polygon points="692.96 257.57 692.96 231.95 667.25 231.95 667.25 51.41 693.01 51.41 693.01 26.7 667.25 26.7 667.25 0 641.54 0 641.54 26.7 615.36 26.7 615.36 51.41 641.54 51.41 641.54 106.45 613.11 106.45 613.11 77.31 103.77 77.31 103.77 106.45 76.35 106.45 76.35 51.41 102.53 51.41 102.53 26.7 76.35 26.7 76.35 0 50.64 0 50.64 26.7 24.88 26.7 24.88 51.41 50.64 51.41 50.64 231.95 24.93 231.95 24.93 257.57 0 257.57 0 334.45 24.93 334.45 24.93 360.05 50.64 360.05 50.64 360.05 76.35 360.05 76.35 487.36 103.77 487.36 103.77 513.25 613.11 513.25 613.11 487.36 641.54 487.36 641.54 360.05 667.25 360.05 667.25 360.05 692.96 360.05 692.96 334.45 717.88 334.45 717.88 257.57 692.96 257.57"/>
    <g>
      <rect class="cls-4" x="641.54" y="26.7" width="25.71" height="24.71"/>
      <rect class="cls-4" x="50.64" y="26.7" width="25.71" height="24.71"/>
    </g>
    <g>
      <rect class="cls-1" x="641.54" y="257.57" width="51.42" height="76.88"/>
      <rect class="cls-1" x="24.93" y="257.57" width="51.42" height="76.88"/>
    </g>
    <g>
      <rect class="cls-2" x="167.98" y="42.23" width="380.91" height="509.34" transform="translate(655.34 -61.53) rotate(90)"/>
      <rect class="cls-5" x="126.77" y="129.45" width="463.34" height="334.91"/>
      <rect class="cls-6" x="217.98" y="92.23" width="280.91" height="409.34" transform="translate(655.34 -61.53) rotate(90)"/>
    </g>
  </g>
  <g>
    <polygon class="cls-7" points="204.85 334.32 204.85 360.17 177.92 360.17 177.92 386.02 204.85 386.02 229.81 386.02 229.81 334.32 204.85 334.32"/>
    <polygon class="cls-7" points="511.26 334.32 511.26 360.17 538.19 360.17 538.19 386.02 511.26 386.02 486.31 386.02 486.31 334.32 511.26 334.32"/>
  </g>
  <g>
    <rect class="cls-3" x="229.81" y="257.57" width="25.1" height="76.75"/>
    <rect class="cls-3" x="461.2" y="257.57" width="25.1" height="76.75" transform="translate(947.51 591.88) rotate(-180)"/>
    <g>
      <rect class="cls-3" x="306.9" y="334.32" width="25.75" height="25.75"/>
      <rect class="cls-3" x="383.47" y="334.32" width="25.75" height="25.75"/>
      <rect class="cls-3" x="332.65" y="360.07" width="50.82" height="25.95"/>
    </g>
  </g>
</svg>